<?xml version="1.0" standalone="no"?>
<!DOCTYPE svg PUBLIC "-//W3C//DTD SVG 20010904//EN"
 "http://www.w3.org/TR/2001/REC-SVG-20010904/DTD/svg10.dtd">
<svg version="1.0" xmlns="http://www.w3.org/2000/svg"
 width="512.000000pt" height="512.000000pt" viewBox="0 0 512.000000 512.000000"
 preserveAspectRatio="xMidYMid meet">
<metadata>
Created by potrace 1.14, written by Peter Selinger 2001-2017
</metadata>
<g transform="translate(0.000000,512.000000) scale(0.100000,-0.100000)"
fill="#000000" stroke="none">
<path d="M2340 4894 c-14 -2 -68 -9 -120 -15 -444 -52 -905 -269 -1234 -580
-61 -57 -84 -85 -76 -93 5 -5 10 -15 10 -20 0 -6 -5 -3 -11 8 -10 17 -17 13
-71 -40 -33 -33 -82 -87 -110 -122 -44 -55 -48 -65 -37 -80 12 -15 12 -16 -2
-4 -14 11 -22 5 -56 -40 -116 -152 -298 -505 -278 -538 3 -5 2 -10 -3 -10 -14
0 -55 -136 -46 -151 4 -7 3 -10 -3 -6 -13 8 -60 -205 -74 -333 -20 -191 -22
-445 -4 -610 17 -164 20 -181 54 -330 66 -288 229 -616 426 -860 139 -172 371
-391 527 -498 294 -202 599 -319 983 -378 170 -27 546 -27 695 -1 170 30 329
68 415 99 44 16 104 37 132 48 138 50 361 180 538 313 95 72 327 302 412 407
326 408 503 922 503 1470 0 147 -26 433 -40 438 -4 2 -6 11 -3 22 9 33 -79
349 -132 475 -172 409 -511 813 -895 1064 -51 34 -99 60 -107 57 -7 -3 -12 0
-10 6 4 19 -259 144 -393 187 -280 90 -417 112 -725 116 -132 2 -251 2 -265
-1z m-515 -144 c-3 -5 -12 -10 -18 -10 -7 0 -6 4 3 10 19 12 23 12 15 0z
m1555 -16 c0 -8 -19 -13 -24 -6 -3 5 1 9 9 9 8 0 15 -2 15 -3z m-1785 -72 c-3
-3 -11 0 -18 7 -9 10 -8 11 6 5 10 -3 15 -9 12 -12z m-78 -87 c0 -8 -4 -12 -9
-9 -5 3 -6 10 -3 15 9 13 12 11 12 -6z m2278 -44 c-9 -8 -36 -10 -30 -2 2 4
11 8 20 8 8 0 13 -3 10 -6z m-10 -49 c-3 -3 -11 0 -18 7 -9 10 -8 11 6 5 10
-3 15 -9 12 -12z m-2585 -56 c0 -3 -4 -8 -10 -11 -5 -3 -10 -1 -10 4 0 6 5 11
10 11 6 0 10 -2 10 -4z m2856 -92 c1 -9 0 -13 -4 -10 -3 4 -7 14 -8 22 -1 9 0
13 4 10 3 -4 7 -14 8 -22z m-3026 -74 c0 -4 -7 -11 -16 -14 -13 -5 -14 -4 -6
7 7 8 8 18 4 22 -4 5 -1 5 6 1 6 -4 12 -11 12 -16z m3230 -155 c14 -19 14 -19
-2 -6 -10 7 -18 18 -18 24 0 6 1 8 3 6 1 -2 9 -13 17 -24z m-3404 0 c-1 -8 -5
-17 -8 -21 -5 -4 -4 16 1 34 3 9 9 -1 7 -13z m3504 -59 c0 -2 -8 -10 -17 -17
-16 -13 -17 -12 -4 4 13 16 21 21 21 13z m127 -208 c-3 -8 -6 -5 -6 6 -1 11 2
17 5 13 3 -3 4 -12 1 -19z m-1781 -249 c43 -11 108 -33 143 -49 34 -17 68 -27
74 -23 6 3 7 1 3 -5 -4 -6 11 -21 36 -36 24 -14 58 -41 77 -60 19 -19 39 -32
44 -29 6 3 7 1 3 -5 -3 -6 0 -14 8 -19 43 -24 137 -186 177 -304 26 -77 33
-115 37 -210 9 -229 -61 -425 -210 -585 -33 -35 -59 -66 -57 -68 27 -23 50
-25 91 -6 84 38 179 17 229 -53 16 -22 29 -46 29 -54 0 -7 5 -13 10 -13 6 0
10 -20 10 -45 0 -25 -4 -45 -9 -45 -5 0 -11 -10 -15 -22 -8 -33 -53 -78 -100
-99 -52 -24 -62 -23 -139 2 -61 20 -66 20 -93 5 -135 -77 -208 -123 -211 -132
-2 -6 8 -16 22 -22 21 -10 32 -9 55 3 52 27 108 12 149 -41 24 -31 28 -96 7
-132 -30 -55 -103 -77 -159 -47 -32 16 -24 20 -203 -86 -78 -47 -82 -51 -87
-90 -12 -87 -107 -135 -180 -90 -37 23 -57 57 -57 100 0 26 -11 35 -131 104
l-132 75 -32 -15 c-41 -20 -95 -11 -131 21 -22 18 -28 34 -32 79 -4 54 -3 58
31 92 29 29 42 35 79 35 24 0 53 -6 63 -14 16 -11 23 -11 52 7 19 11 32 24 31
29 -2 6 -31 24 -63 42 -33 17 -93 51 -132 75 l-73 43 -37 -18 c-52 -25 -138
-24 -183 2 -50 29 -100 106 -100 156 0 135 155 229 275 168 34 -17 44 -19 68
-9 l28 12 -38 41 c-153 162 -223 338 -223 562 0 138 23 233 87 364 26 52 47
98 48 102 0 3 4 10 9 15 6 5 6 2 1 -7 -8 -13 -7 -13 9 -1 9 8 15 20 12 27 -3
8 -2 13 2 13 20 -3 23 3 11 19 -12 15 -12 16 2 5 13 -10 22 -5 57 30 24 24 40
46 37 50 -3 4 -2 5 1 3 3 -3 43 20 89 50 46 30 88 54 95 54 6 0 8 4 5 10 -3 5
0 7 8 5 7 -3 31 2 52 11 115 48 334 59 471 23z m-2233 -24 c-3 -9 -8 -14 -10
-11 -3 3 -2 9 2 15 9 16 15 13 8 -4z m1563 -67 c4 4 2 -1 -5 -11 -15 -19 -24
-16 -27 9 -2 11 1 12 10 5 7 -6 17 -7 22 -3z m-96 -62 c0 -3 -4 -8 -10 -11 -5
-3 -10 -1 -10 4 0 6 5 11 10 11 6 0 10 -2 10 -4z m1150 -21 c13 -14 21 -25 18
-25 -2 0 -15 11 -28 25 -13 14 -21 25 -18 25 2 0 15 -11 28 -25z m76 -67 c4
-7 4 -10 -1 -6 -4 4 -15 2 -24 -5 -14 -11 -14 -10 -2 6 16 20 18 21 27 5z
m-1340 -80 c4 -7 3 -8 -4 -4 -7 4 -12 2 -12 -5 0 -7 -3 -10 -6 -6 -6 5 3 27
11 27 2 0 7 -5 11 -12z m1447 -43 c-3 -9 -8 -14 -10 -11 -3 3 -2 9 2 15 9 16
15 13 8 -4z m-1575 -190 c-3 -3 -9 2 -12 12 -6 14 -5 15 5 6 7 -7 10 -15 7
-18z m176 -753 c3 -5 -1 -9 -9 -9 -8 0 -12 4 -9 9 3 4 7 8 9 8 2 0 6 -4 9 -8z
m-261 -347 c-3 -9 -8 -14 -10 -11 -3 3 -2 9 2 15 9 16 15 13 8 -4z m-1226
-180 c0 -8 -4 -12 -9 -9 -5 3 -6 10 -3 15 9 13 12 11 12 -6z m4293 -175 c0 -5
-2 -10 -4 -10 -3 0 -8 5 -11 10 -3 6 -1 10 4 10 6 0 11 -4 11 -10z m-79 -153
c-6 -8 -8 -17 -4 -20 3 -4 1 -7 -5 -7 -15 0 -15 13 0 28 16 16 23 15 9 -1z
m-175 -252 c1 -9 -4 -11 -14 -7 -10 4 -12 7 -4 10 7 2 9 9 5 15 -3 7 -2 8 2 4
5 -4 10 -14 11 -22z m-3716 -6 c0 -5 -4 -9 -8 -9 -5 0 -9 7 -9 15 0 8 4 12 9
9 4 -3 8 -9 8 -15z"/>
<path d="M2748 3350 c-4 -38 -12 -59 -34 -81 -48 -51 -74 -59 -184 -59 l-100
0 0 -98 c0 -90 -2 -100 -23 -120 -21 -19 -34 -22 -120 -22 l-97 0 0 -80 0 -80
259 0 260 0 20 -26 c19 -24 21 -40 21 -160 l0 -134 61 0 c72 0 126 -25 154
-72 17 -29 18 -30 36 -12 28 29 87 132 108 189 48 129 47 312 -4 438 -57 141
-162 264 -283 330 l-69 37 -5 -50z"/>
<path d="M1884 2929 c-15 -25 -8 -210 10 -279 26 -96 83 -196 155 -272 35 -38
67 -68 72 -68 5 0 45 21 89 46 74 43 78 47 69 71 -5 13 -9 50 -9 81 l0 57
-189 189 c-138 138 -191 185 -197 175z"/>
<path d="M2307 2277 c-37 -22 -66 -41 -64 -44 8 -7 113 -41 150 -47 l37 -7 0
49 c0 41 -4 51 -28 69 l-28 21 -67 -41z"/>
<path d="M2018 2109 c-43 -28 -48 -35 -48 -68 l1 -36 172 -99 172 -98 35 20
c29 16 36 27 41 63 8 61 53 99 117 99 27 0 57 -7 70 -16 27 -19 52 -65 52 -98
0 -17 10 -30 36 -45 19 -12 41 -21 47 -21 7 0 62 29 122 65 60 36 110 65 112
65 2 0 21 11 43 25 35 22 40 30 40 64 0 35 -3 40 -50 65 l-50 27 -73 -35
c-123 -58 -184 -70 -347 -71 -114 0 -159 4 -210 19 -78 24 -164 61 -201 87
-15 10 -29 19 -31 19 -1 0 -24 -14 -50 -31z"/>
<path d="M2213 1657 c-82 -50 -77 -61 75 -151 71 -42 134 -76 140 -76 21 0 13
14 -18 32 -46 26 -90 103 -90 158 0 78 -26 87 -107 37z"/>
<path d="M2718 1669 c-19 -14 -28 -30 -28 -49 0 -56 -14 -93 -49 -130 -20 -20
-43 -39 -51 -42 -8 -3 -12 -9 -8 -13 4 -4 66 28 138 71 116 69 131 81 128 102
-2 18 -17 33 -53 53 l-50 28 -27 -20z"/>
</g>
</svg>
